<?xml version="1.0" standalone="no"?>
<!DOCTYPE svg PUBLIC "-//W3C//DTD SVG 20010904//EN"
 "http://www.w3.org/TR/2001/REC-SVG-20010904/DTD/svg10.dtd">
<svg version="1.0" xmlns="http://www.w3.org/2000/svg"
 width="1024.000000pt" height="1024.000000pt" viewBox="0 0 1024.000000 1024.000000"
 preserveAspectRatio="xMidYMid meet">

<g transform="translate(0.000000,1024.000000) scale(0.100000,-0.100000)"
fill="#000000" stroke="none">
<path d="M4000 7248 c0 -1499 1 -1457 -51 -1561 -50 -99 -137 -177 -225 -203
l-54 -15 0 -70 0 -69 700 0 700 0 0 68 0 69 -42 12 c-134 39 -238 162 -238
280 0 31 53 170 218 574 l15 37 596 0 596 0 80 -197 c173 -425 175 -430 129
-521 -36 -73 -105 -137 -175 -164 l-59 -23 0 -67 0 -68 500 0 500 0 0 69 0 69
-69 21 c-75 23 -148 72 -198 133 -20 25 -59 108 -105 226 -40 103 -307 772
-594 1487 l-520 1300 -852 3 -852 2 0 -1392z m1473 980 c63 -151 248 -607 357
-878 65 -162 150 -370 188 -462 l70 -168 -469 0 -468 0 35 83 c100 230 274
661 273 676 0 9 -35 95 -77 191 -74 168 -78 175 -108 178 l-31 3 -76 -178
c-42 -98 -96 -223 -120 -278 l-44 -100 -321 -3 -322 -2 0 500 0 500 543 0 544
0 26 -62z m-612 -1340 c-10 -24 -65 -149 -121 -278 -56 -129 -176 -408 -267
-620 -91 -212 -172 -393 -181 -403 -22 -24 -56 -18 -60 11 -2 13 25 89 60 170
l63 147 3 508 3 507 259 0 259 0 -18 -42z"/>
<path d="M3800 4371 c-305 -43 -480 -259 -480 -591 0 -280 124 -471 358 -552
59 -20 85 -23 222 -23 144 1 160 3 223 28 134 52 224 130 285 245 49 93 65
169 64 312 0 106 -4 137 -26 205 -74 232 -251 363 -511 379 -44 2 -105 1 -135
-3z m205 -105 c142 -66 217 -235 219 -491 1 -203 -43 -335 -145 -427 -50 -45
-102 -62 -189 -63 -79 0 -161 36 -211 93 -131 149 -159 523 -55 737 39 79 70
112 140 149 67 35 168 36 241 2z"/>
<path d="M1280 4322 c0 -24 6 -30 42 -42 26 -9 47 -25 55 -40 17 -33 19 -851
2 -899 -11 -31 -52 -61 -84 -61 -11 0 -15 -10 -15 -35 l0 -35 215 0 215 0 0
28 c0 22 -7 30 -40 44 -25 10 -44 26 -50 43 -5 14 -10 119 -10 232 l0 206 105
-5 c118 -7 146 -18 172 -73 13 -28 23 -35 45 -35 l29 0 -3 150 -3 150 -30 0
c-24 0 -33 -7 -46 -33 -26 -52 -69 -71 -176 -75 l-93 -4 0 216 0 216 118 0
c64 0 133 -4 151 -10 48 -14 96 -63 122 -126 20 -51 24 -54 56 -54 33 0 34 1
29 33 -3 17 -8 64 -11 102 -3 39 -9 85 -12 103 l-5 32 -389 0 -389 0 0 -28z"/>
<path d="M2250 4322 c0 -24 6 -30 42 -42 26 -9 48 -25 55 -40 10 -19 12 -124
11 -467 -3 -491 1 -465 -71 -489 -26 -9 -33 -17 -35 -42 l-3 -32 221 0 221 0
-3 32 c-2 26 -9 33 -34 40 -65 17 -69 28 -72 254 l-4 204 50 0 c78 0 96 -22
208 -247 54 -109 111 -212 127 -230 36 -41 79 -53 195 -53 89 0 92 1 92 23 0
30 -9 41 -47 56 -54 22 -54 22 -224 330 -38 68 -74 129 -80 137 -8 10 2 19 47
41 121 59 184 152 184 271 0 109 -42 183 -131 227 -94 48 -151 55 -461 55
l-288 0 0 -28z m547 -80 c118 -61 137 -266 33 -355 -49 -42 -98 -57 -184 -57
l-66 0 0 213 c0 118 3 217 8 221 15 16 166 0 209 -22z"/>
<path d="M4590 4320 c0 -26 5 -31 29 -36 36 -7 69 -36 76 -67 3 -12 4 -217 3
-455 l-3 -434 -24 -20 c-14 -10 -37 -22 -53 -25 -24 -5 -28 -10 -28 -39 l0
-34 404 0 405 0 11 58 c6 31 18 85 26 120 20 92 19 102 -14 102 -23 0 -35 -11
-73 -67 -74 -110 -122 -133 -280 -133 -146 0 -139 -13 -140 250 l0 215 103 -1
c119 0 140 -8 168 -64 16 -30 26 -40 45 -40 l25 0 0 150 0 150 -30 0 c-16 0
-30 -4 -30 -10 0 -5 -14 -25 -31 -44 -22 -26 -43 -38 -82 -46 -55 -12 -174
-10 -169 3 1 4 2 99 2 212 l0 205 103 0 c186 -1 222 -17 276 -123 30 -59 38
-67 63 -67 33 0 32 -10 16 148 l-11 122 -394 0 -393 0 0 -30z"/>
<path d="M5600 4322 c0 -24 6 -30 43 -42 79 -28 78 -22 75 -512 l-3 -427 -23
-23 c-12 -13 -37 -28 -55 -34 -26 -9 -33 -17 -35 -42 l-3 -32 185 0 186 0 0
28 c0 24 -6 30 -50 45 -28 10 -55 28 -62 40 -10 16 -14 120 -18 395 -3 204 -2
372 1 372 3 0 10 -8 15 -19 5 -10 144 -208 309 -439 l300 -421 67 -1 67 0 3
499 c3 490 3 500 24 528 12 15 41 35 65 44 35 13 45 22 47 43 l3 26 -205 0
-206 0 0 -30 c0 -24 5 -31 28 -35 60 -12 77 -22 99 -54 23 -34 23 -37 23 -363
l0 -330 -288 404 -288 403 -152 3 -152 3 0 -29z"/>
<path d="M6880 4322 c0 -25 6 -31 38 -40 25 -8 43 -21 50 -37 9 -19 12 -152
12 -464 0 -424 -1 -439 -20 -464 -11 -14 -34 -28 -50 -32 -26 -6 -30 -11 -30
-41 l0 -34 398 0 398 0 27 123 c35 154 34 157 -2 157 -24 0 -34 -8 -55 -44
-42 -72 -77 -107 -131 -132 -43 -20 -66 -24 -161 -24 -79 0 -116 4 -130 14
-18 13 -19 30 -22 237 l-3 222 107 -5 108 -5 33 -38 c18 -21 33 -44 33 -52 0
-8 12 -13 30 -13 l30 0 0 150 0 150 -30 0 c-16 0 -30 -4 -30 -10 0 -5 -13 -25
-30 -43 -35 -41 -88 -57 -185 -57 l-65 0 2 213 3 212 85 3 c184 7 233 -13 289
-120 31 -58 40 -68 64 -68 32 0 32 -3 15 156 l-12 114 -383 0 -383 0 0 -28z"/>
<path d="M7890 4321 c0 -29 14 -41 51 -41 11 0 28 -14 39 -32 19 -32 20 -52
20 -456 0 -479 0 -478 -69 -505 -35 -15 -41 -21 -41 -47 l0 -30 216 0 215 0
-3 32 c-2 26 -9 33 -34 40 -65 17 -69 28 -72 254 l-3 204 50 0 c38 0 56 -6 78
-24 17 -15 72 -111 138 -243 107 -212 111 -219 155 -240 37 -20 60 -23 148
-23 l103 0 -3 31 c-2 26 -9 33 -41 44 -20 7 -44 18 -52 25 -9 7 -50 74 -92
149 -42 75 -98 174 -125 219 -26 46 -48 87 -48 92 0 4 10 10 23 14 12 3 48 21
79 41 104 65 152 177 130 297 -14 78 -52 132 -116 169 -90 51 -155 59 -465 59
l-281 0 0 -29z m503 -62 c146 -40 186 -270 65 -373 -45 -39 -102 -56 -187 -56
l-61 0 0 213 c0 118 3 217 7 220 10 11 134 8 176 -4z"/>
<path d="M4352 2682 c-115 -42 -181 -134 -190 -265 -9 -141 44 -247 152 -301
51 -27 68 -30 144 -30 70 0 96 4 134 23 105 51 158 135 166 263 8 138 -44 240
-151 294 -69 36 -181 42 -255 16z m188 -64 c19 -13 45 -45 59 -73 23 -45 26
-62 26 -160 0 -99 -3 -115 -25 -155 -68 -121 -212 -122 -279 -1 -29 53 -40
191 -22 268 13 53 60 119 95 133 42 17 111 11 146 -12z"/>
<path d="M5185 2690 c-57 -14 -85 -30 -129 -70 -65 -60 -90 -125 -91 -235 0
-79 3 -97 28 -147 49 -99 126 -145 262 -154 50 -4 88 0 135 13 l64 18 18 55
c9 30 17 65 17 78 1 35 -34 28 -60 -14 -44 -71 -85 -96 -156 -95 -120 1 -192
115 -180 282 9 141 63 210 167 217 75 5 111 -14 156 -83 46 -74 64 -73 63 3
-2 112 -5 115 -84 129 -79 13 -165 15 -210 3z"/>
<path d="M6600 2686 c-141 -37 -219 -160 -207 -322 12 -156 92 -247 244 -275
68 -13 155 -6 211 16 37 15 41 20 56 80 20 81 20 85 -4 85 -12 0 -29 -15 -44
-37 -43 -68 -70 -86 -135 -91 -80 -6 -128 21 -168 92 -26 47 -28 59 -28 156 0
94 3 111 26 155 35 68 77 95 148 95 73 0 113 -24 146 -90 18 -35 31 -50 45
-50 22 0 24 17 12 120 l-7 54 -75 12 c-96 16 -163 16 -220 0z"/>
<path d="M2243 2673 c-21 -60 -177 -463 -189 -489 -8 -17 -26 -36 -39 -42 -14
-7 -25 -18 -25 -27 0 -12 16 -15 90 -15 74 0 90 3 90 15 0 9 -11 20 -25 25
-31 12 -31 27 -4 91 l21 49 110 0 109 0 19 -46 c25 -58 25 -81 0 -96 -11 -7
-20 -18 -20 -25 0 -10 30 -13 121 -13 92 0 120 3 117 13 -3 6 -17 18 -31 25
-34 17 -35 18 -147 310 l-94 242 -48 0 c-37 0 -50 -4 -55 -17z m76 -208 c23
-61 41 -116 41 -122 0 -10 -25 -13 -90 -13 -49 0 -90 2 -90 4 0 2 18 52 40
112 23 60 43 115 46 123 7 20 9 16 53 -104z"/>
<path d="M2761 2682 c-34 -10 -37 -28 -7 -36 53 -13 57 -33 54 -272 l-3 -219
-32 -14 c-18 -8 -33 -21 -33 -28 0 -17 303 -19 380 -2 70 15 128 62 165 134
27 52 30 68 30 149 0 106 -20 161 -80 219 -59 57 -107 69 -290 73 -88 2 -171
0 -184 -4z m302 -56 c21 -8 48 -22 59 -33 53 -46 80 -180 59 -285 -21 -100
-73 -152 -163 -164 -38 -5 -49 -3 -67 15 -20 20 -21 30 -21 251 l0 230 48 0
c26 -1 64 -7 85 -14z"/>
<path d="M3430 2680 c-17 -11 -13 -16 31 -38 30 -15 39 -31 82 -142 26 -69 73
-189 103 -268 l56 -143 36 3 37 3 102 254 c57 140 111 263 120 274 10 10 28
23 41 28 13 5 22 15 19 22 -6 18 -212 17 -212 -1 0 -7 11 -18 25 -25 15 -7 26
-23 28 -37 2 -20 -104 -329 -125 -362 -6 -10 -43 81 -111 269 l-37 103 29 23
c17 14 26 29 22 35 -9 15 -224 16 -246 2z"/>
<path d="M5836 2483 c-109 -285 -128 -325 -159 -342 -15 -8 -27 -20 -27 -28 0
-10 22 -13 90 -13 73 0 90 3 90 15 0 8 -4 15 -8 15 -5 0 -16 6 -25 13 -16 11
-16 15 -1 62 9 28 21 56 27 63 6 8 43 12 116 12 l107 0 22 -60 21 -60 -24 -16
c-14 -9 -25 -23 -25 -30 0 -11 24 -14 120 -14 66 0 120 4 120 9 0 5 -15 19
-33 30 -31 19 -43 44 -138 286 l-104 265 -45 0 -45 0 -79 -207z m148 -36 l44
-117 -94 0 -94 0 11 28 c6 15 22 59 36 97 41 112 43 118 48 113 2 -2 24 -57
49 -121z"/>
<path d="M7117 2684 c-12 -13 -7 -34 8 -34 8 0 24 -9 35 -20 19 -19 20 -33 20
-239 0 -233 -1 -241 -50 -256 -11 -3 -20 -13 -20 -21 0 -11 24 -14 131 -14
100 0 130 3 127 13 -3 6 -15 17 -28 24 -12 6 -27 17 -31 25 -5 7 -9 108 -9
224 0 199 1 213 21 238 11 14 27 26 35 26 9 0 14 7 12 18 -3 15 -18 17 -124
20 -66 1 -123 -1 -127 -4z"/>
<path d="M7785 2678 c-28 -80 -176 -461 -189 -486 -10 -19 -31 -41 -47 -50
-54 -31 -37 -42 66 -42 78 0 95 3 95 15 0 9 -11 21 -25 27 -29 13 -29 16 -6
83 l18 50 113 0 113 0 18 -50 c23 -67 23 -74 -6 -87 -14 -6 -25 -17 -25 -25 0
-10 26 -13 120 -13 97 0 120 3 120 14 0 8 -8 17 -19 21 -36 11 -54 46 -151
297 l-98 253 -46 3 c-31 2 -48 -1 -51 -10z m68 -214 c21 -59 41 -113 44 -120
4 -11 -12 -14 -86 -14 -50 0 -91 1 -91 3 0 1 18 49 40 107 22 58 40 111 40
117 0 35 19 2 53 -93z"/>
</g>
</svg>
